<svg width="16" height="16" viewBox="0 0 16 16" fill="none" xmlns="http://www.w3.org/2000/svg">
<path fill-rule="evenodd" clip-rule="evenodd" d="M8.70123 0.598461C8.77561 0.200553 9.15866 -0.0617466 9.55679 0.012599C9.7292 0.0447944 9.8997 0.0824736 10.0681 0.125451C13.0658 0.890466 15.391 3.33157 15.9857 6.39305C16.0628 6.79043 15.8031 7.1751 15.4055 7.25224C15.0079 7.32938 14.623 7.06978 14.5458 6.6724C14.0599 4.17043 12.1565 2.17133 9.70525 1.54577C9.56767 1.51066 9.42834 1.47987 9.28741 1.45355C8.88928 1.37921 8.62684 0.99637 8.70123 0.598461ZM7.25759 0.615379C7.34149 1.01139 7.0883 1.4004 6.69207 1.48426C6.60351 1.503 6.51561 1.52352 6.42842 1.54577C3.57542 2.27385 1.4667 4.86053 1.4667 7.93762C1.4667 11.5808 4.42168 14.5341 8.06683 14.5341C11.2785 14.5341 13.9558 12.2407 14.5458 9.20283C14.623 8.80546 15.0079 8.54585 15.4055 8.62299C15.8031 8.70014 16.0628 9.08481 15.9856 9.48218C15.2643 13.196 11.994 16 8.06683 16C3.61164 16 0 12.3904 0 7.93762C0 4.17451 2.57887 1.01524 6.06556 0.125451C6.17229 0.0982133 6.27986 0.0731036 6.38823 0.0501691C6.78446 -0.0336872 7.17369 0.219366 7.25759 0.615379Z" fill="currentColor"/>
<path d="M9.82009 8.09828C9.48978 7.7732 8.77199 7.3949 7.82511 7.10478C7.26195 6.93211 6.93737 6.79811 6.93737 6.38676C6.93737 5.81372 7.31344 5.68519 7.78879 5.68519C8.15534 5.68519 8.69372 6.11124 8.69372 6.45653L10.1484 6.12781C10.1484 5.86144 9.93648 5.41885 9.51841 5.07364C9.1824 4.79818 8.74524 4.6384 8.21453 4.58331V3.84326H7.24667V4.58511C6.68536 4.65123 6.29025 4.82756 5.9523 5.10305C5.60489 5.38404 5.39105 5.85044 5.39105 6.31324C5.39105 6.84951 5.47692 7.31224 5.78813 7.63735C6.09736 7.96418 7.2161 8.32962 7.76968 8.449C8.30426 8.5647 8.79873 8.88793 8.80254 9.33787C8.80824 9.88699 8.28328 10.0945 7.84418 10.0945C7.10732 10.0945 6.61284 9.56741 6.61284 9.10652L5.15625 9.44988C5.24976 9.9384 5.39486 10.3277 5.87021 10.6913C6.22911 10.9686 6.65487 11.1376 7.24667 11.2055V12.0889H8.21453V11.2184C8.76814 11.1761 9.23393 10.9705 9.61959 10.6968C10.074 10.37 10.3126 9.95308 10.3126 9.33787C10.3126 8.83835 10.1484 8.42698 9.82007 8.09827L9.82009 8.09828Z" fill="currentColor"/>
</svg>
