<svg width="16" height="16" viewBox="0 0 16 16" fill="none" xmlns="http://www.w3.org/2000/svg">
<path d="M14.2966 1.27311C14.652 1.27311 14.9397 1.61874 14.9397 2.04582V13.9542C14.9397 14.3813 14.6511 14.7269 14.2966 14.7269H1.70263C1.34719 14.7269 1.05955 14.3813 1.05955 13.9542V2.04582C1.05955 1.61874 1.34719 1.27311 1.70263 1.27311H14.2966ZM14.2966 0H1.70263C0.762214 0 0 0.915849 0 2.04582V13.9542C0 15.0842 0.762214 16 1.70263 16H14.2966C15.237 16 15.9992 15.0842 15.9992 13.9542V2.04582C15.9992 0.915849 15.237 0 14.2966 0Z" fill="currentColor"/>
<path d="M7.54784 7.98248C7.93282 7.50343 8.14771 6.86286 8.14679 6.19703C8.14679 4.77526 7.18756 3.62158 6.00338 3.62158C4.8192 3.62158 3.86089 4.77416 3.86089 6.19703C3.85997 6.86286 4.07486 7.50343 4.45983 7.98248C3.26011 8.67468 2.43164 10.1481 2.43164 11.8533H3.43202C3.43202 11.0282 3.69995 10.2525 4.18551 9.66794C4.6418 9.11967 5.23892 8.80324 5.87902 8.76588C5.92017 8.76918 5.96223 8.77028 6.0043 8.77028C6.04636 8.77028 6.08751 8.76918 6.12866 8.76588C6.76875 8.80214 7.36587 9.11967 7.82217 9.66794C8.30773 10.2514 8.57566 11.0271 8.57566 11.8533H9.57604C9.57604 10.1481 8.74757 8.67468 7.54784 7.98248ZM4.86127 6.19703C4.86127 5.44 5.37426 4.8236 6.0043 4.8236C6.63433 4.8236 7.14733 5.44 7.14733 6.19703C7.14733 6.91121 6.69103 7.50013 6.10946 7.56386C6.07471 7.56276 6.03904 7.56166 6.0043 7.56166C5.96863 7.56166 5.93389 7.56276 5.89914 7.56386C5.31756 7.50013 4.86127 6.91121 4.86127 6.19703ZM13.8619 5.31639C13.8619 5.64711 13.637 5.9174 13.3618 5.9174H10.0762C9.80098 5.9174 9.57604 5.64711 9.57604 5.31639C9.57604 4.98567 9.80098 4.71538 10.0762 4.71538H13.3618C13.637 4.71538 13.8619 4.98567 13.8619 5.31639ZM13.8619 8.14894C13.8619 8.47966 13.637 8.74995 13.3618 8.74995H11.1342C10.859 8.74995 10.634 8.47966 10.634 8.14894C10.634 7.81822 10.859 7.54793 11.1342 7.54793H13.3618C13.637 7.54793 13.8619 7.81822 13.8619 8.14894Z" fill="currentColor"/>
</svg>
