<svg width="20" height="24" viewBox="0 0 20 24" fill="none" xmlns="http://www.w3.org/2000/svg">
<path d="M7.93999 18.0769V22.7169C7.93999 22.7986 7.90752 22.877 7.84972 22.9348C7.79192 22.9926 7.71353 23.0251 7.63179 23.0251H1.00547C0.923727 23.0251 0.845334 22.9926 0.787536 22.9348C0.729737 22.877 0.697266 22.7986 0.697266 22.7169V18.0615L7.93999 18.0769Z" fill="#E6E2F1"/>
<path d="M18.3384 1.27988V6.28198H16.7651C16.8653 6.09024 16.9056 5.87279 16.8806 5.65787C16.8761 5.61799 16.8694 5.57838 16.8606 5.53922C16.8542 5.50677 16.8455 5.47484 16.8344 5.44367C16.8268 5.41794 16.8175 5.39272 16.8067 5.36817L16.7913 5.32964C16.7805 5.30498 16.7681 5.28033 16.7558 5.25721C16.7388 5.22568 16.7198 5.19531 16.6988 5.16629C16.6801 5.13871 16.6595 5.11245 16.6372 5.0877C16.6188 5.06507 16.5993 5.04346 16.5786 5.02298C16.5486 4.99275 16.5167 4.96444 16.4831 4.93822L16.4045 4.87658C16.293 4.78712 16.165 4.72068 16.0277 4.68113C15.8903 4.64158 15.7465 4.6297 15.6046 4.64619C15.4627 4.66268 15.3254 4.7072 15.2008 4.77717C15.0763 4.84715 14.9668 4.94118 14.8789 5.0538L13.8957 6.29431H11.0957V1.27988C11.0957 1.19814 11.1282 1.11975 11.186 1.06195C11.2438 1.00415 11.3222 0.97168 11.4039 0.97168H18.0302C18.112 0.97168 18.1904 1.00415 18.2482 1.06195C18.306 1.11975 18.3384 1.19814 18.3384 1.27988Z" fill="#6840DD"/>
<path d="M18.3381 12.4119V22.7197C18.3381 22.8014 18.3056 22.8798 18.2478 22.9376C18.19 22.9954 18.1116 23.0279 18.0299 23.0279H11.4035C11.3218 23.0279 11.2434 22.9954 11.1856 22.9376C11.1278 22.8798 11.0953 22.8014 11.0953 22.7197V17.6251H8.40938H7.94708L0.704354 17.6066H0.616517C0.564376 17.6069 0.512466 17.5997 0.462416 17.585C0.377592 17.5646 0.298544 17.525 0.231266 17.4695C0.21272 17.4553 0.19521 17.4399 0.178871 17.4232C0.120675 17.3639 0.074893 17.2935 0.0442007 17.2162C0.0135084 17.139 -0.00147869 17.0564 0.000114979 16.9733V16.8731C4.4659e-05 16.791 0.0163655 16.7098 0.04812 16.6341C0.0798745 16.5584 0.126423 16.4898 0.185036 16.4324C0.200351 16.4167 0.216837 16.4023 0.234348 16.3892C0.300247 16.333 0.378332 16.2929 0.462416 16.2721C0.512497 16.2576 0.564386 16.2504 0.616517 16.2505V15.7882C0.564334 15.7876 0.512483 15.7798 0.462416 15.7651C0.377396 15.7435 0.29837 15.7029 0.231266 15.6464L0.186577 15.611C0.12656 15.5526 0.0790737 15.4826 0.0470152 15.4052C0.0149568 15.3279 -0.00100122 15.2448 0.000114979 15.161V15.0609C0.000108604 14.9793 0.016304 14.8985 0.0477618 14.8232C0.0792196 14.7479 0.125314 14.6796 0.18337 14.6223C0.241427 14.5649 0.310291 14.5197 0.385968 14.4892C0.461645 14.4586 0.542629 14.4434 0.624222 14.4445H0.793732V13.9822C0.759387 13.9853 0.72483 13.9853 0.690485 13.9822C0.610362 13.9681 0.533228 13.9405 0.462416 13.9005C0.378951 13.8627 0.302791 13.8106 0.23743 13.7464C0.134912 13.6414 0.0636397 13.5099 0.0315908 13.3668C-0.000458056 13.2236 0.00798175 13.0743 0.0559654 12.9356C0.103949 12.7969 0.189583 12.6743 0.30328 12.5816C0.416977 12.4888 0.55425 12.4295 0.699731 12.4103C0.734621 12.408 0.769629 12.408 0.804519 12.4103H3.50898L3.02665 11.8201C2.92441 11.69 2.87788 11.5247 2.89723 11.3604C2.91658 11.1961 3.00024 11.0461 3.12989 10.9433L3.21003 10.8817C3.34032 10.7796 3.50575 10.7333 3.67009 10.753C3.83443 10.7726 3.98429 10.8566 4.08686 10.9864L5.20409 12.4042H7.93937H8.40167L11.0953 12.4196V12.4119H18.3381Z" fill="#6840DD"/>
<path d="M19.387 9.4133V9.51347C19.3873 9.65983 19.3363 9.80166 19.2428 9.91428C19.1493 10.0269 19.0193 10.1032 18.8754 10.1299C18.8379 10.1373 18.7997 10.141 18.7614 10.1407V10.603C18.7997 10.6027 18.8379 10.6063 18.8754 10.6137C19.0201 10.6387 19.1512 10.7145 19.245 10.8275C19.3388 10.9405 19.3892 11.0833 19.387 11.2301V11.3303C19.3873 11.4767 19.3363 11.6185 19.2428 11.7311C19.1493 11.8438 19.0193 11.92 18.8754 11.9467C18.8379 11.9542 18.7997 11.9578 18.7614 11.9575H8.02212H5.51183L4.53175 10.7139C4.35431 10.4883 4.09488 10.3419 3.80999 10.3067C3.52509 10.2714 3.23782 10.3502 3.01078 10.5259L2.93219 10.5891C2.7338 10.7458 2.59622 10.9668 2.54306 11.214C2.48991 11.4612 2.52452 11.7192 2.64094 11.9436H0.891898C0.856455 11.9436 0.821011 11.9436 0.787109 11.9436V1.27988C0.787109 1.19814 0.81958 1.11975 0.877379 1.06195C0.935178 1.00415 1.01357 0.97168 1.09531 0.97168H7.72163C7.80337 0.97168 7.88176 1.00415 7.93956 1.06195C7.99736 1.11975 8.02983 1.19814 8.02983 1.27988V6.74428H14.1938L15.3157 5.3281C15.366 5.26297 15.4287 5.20857 15.5004 5.16808C15.572 5.1276 15.651 5.10186 15.7327 5.09238C15.8144 5.0829 15.8972 5.08988 15.9761 5.11289C16.0551 5.13591 16.1287 5.1745 16.1925 5.22639L16.2711 5.28803C16.4005 5.39029 16.4841 5.53958 16.5037 5.7033C16.5234 5.86701 16.4774 6.03184 16.3759 6.16178L15.8905 6.74428H18.595C18.6114 6.74275 18.6279 6.74275 18.6443 6.74428C18.7234 6.74735 18.8015 6.76349 18.8754 6.79205C19.0256 6.84911 19.1549 6.95048 19.2461 7.08273C19.3374 7.21498 19.3862 7.37184 19.3862 7.53251C19.3862 7.69317 19.3374 7.85003 19.2461 7.98228C19.1549 8.11453 19.0256 8.21591 18.8754 8.27296C18.8015 8.30152 18.7234 8.31766 18.6443 8.32073C18.6279 8.32226 18.6114 8.32226 18.595 8.32073V8.78303H18.7614C18.7997 8.78273 18.8379 8.78634 18.8754 8.79382C19.0199 8.82059 19.1503 8.89733 19.2438 9.01059C19.3373 9.12385 19.388 9.26641 19.387 9.4133Z" fill="#E6E2F1"/>
</svg>
