<svg width="20" height="24" viewBox="0 0 20 24" fill="none" xmlns="http://www.w3.org/2000/svg">
    <path d="M7.9395 18.0779V22.7179C7.9395 22.7996 7.90703 22.878 7.84923 22.9358C7.79143 22.9936 7.71304 23.0261 7.6313 23.0261H1.00498C0.923238 23.0261 0.844846 22.9936 0.787047 22.9358C0.729248 22.878 0.696777 22.7996 0.696777 22.7179V18.0625L7.9395 18.0779Z" fill="#E6EBEB"/>
    <path d="M18.3379 1.28086V6.28296H16.7646C16.8648 6.09122 16.9051 5.87377 16.8801 5.65885C16.8756 5.61897 16.8689 5.57936 16.8601 5.54019C16.8537 5.50775 16.845 5.47581 16.8339 5.44465C16.8263 5.41892 16.817 5.3937 16.8062 5.36914L16.7908 5.33062C16.78 5.30596 16.7677 5.2813 16.7553 5.25819C16.7383 5.22666 16.7193 5.19629 16.6983 5.16727C16.6796 5.13969 16.659 5.11343 16.6367 5.08868C16.6184 5.06604 16.5988 5.04444 16.5781 5.02396C16.5481 4.99372 16.5162 4.96541 16.4826 4.9392L16.404 4.87756C16.2926 4.7881 16.1645 4.72166 16.0272 4.68211C15.8899 4.64255 15.7461 4.63068 15.6041 4.64717C15.4622 4.66365 15.3249 4.70818 15.2004 4.77815C15.0758 4.84812 14.9663 4.94215 14.8784 5.05478L13.8952 6.29529H11.0952V1.28086C11.0952 1.19912 11.1277 1.12073 11.1855 1.06293C11.2433 1.00513 11.3217 0.972656 11.4034 0.972656H18.0297C18.1115 0.972656 18.1899 1.00513 18.2477 1.06293C18.3055 1.12073 18.3379 1.19912 18.3379 1.28086Z" fill="#01AFA5"/>
    <path d="M18.3381 12.4133V22.7211C18.3381 22.8029 18.3056 22.8813 18.2478 22.9391C18.19 22.9969 18.1116 23.0293 18.0299 23.0293H11.4035C11.3218 23.0293 11.2434 22.9969 11.1856 22.9391C11.1278 22.8813 11.0953 22.8029 11.0953 22.7211V17.6266H8.40938H7.94708L0.704354 17.6081H0.616517C0.564376 17.6084 0.512466 17.6011 0.462416 17.5865C0.377592 17.566 0.298544 17.5265 0.231266 17.4709C0.21272 17.4568 0.19521 17.4413 0.178871 17.4247C0.120675 17.3653 0.074893 17.295 0.0442007 17.2177C0.0135084 17.1404 -0.00147869 17.0578 0.000114979 16.9747V16.8746C4.4659e-05 16.7925 0.0163655 16.7112 0.04812 16.6355C0.0798745 16.5599 0.126423 16.4913 0.185036 16.4338C0.200351 16.4182 0.216837 16.4038 0.234348 16.3907C0.300247 16.3345 0.378332 16.2944 0.462416 16.2736C0.512497 16.2591 0.564386 16.2518 0.616517 16.252V15.7897C0.564334 15.7891 0.512483 15.7813 0.462416 15.7666C0.377396 15.745 0.29837 15.7044 0.231266 15.6479L0.186577 15.6125C0.12656 15.5541 0.0790737 15.484 0.0470152 15.4067C0.0149568 15.3293 -0.00100122 15.2462 0.000114979 15.1625V15.0623C0.000108604 14.9807 0.016304 14.8999 0.0477618 14.8246C0.0792196 14.7494 0.125314 14.6811 0.18337 14.6237C0.241427 14.5664 0.310291 14.5211 0.385968 14.4906C0.461645 14.4601 0.542629 14.4449 0.624222 14.4459H0.793732V13.9836C0.759387 13.9867 0.72483 13.9867 0.690485 13.9836C0.610362 13.9696 0.533228 13.942 0.462416 13.902C0.378951 13.8642 0.302791 13.812 0.23743 13.7479C0.134912 13.6429 0.0636397 13.5114 0.0315908 13.3682C-0.000458056 13.225 0.00798175 13.0757 0.0559654 12.9371C0.103949 12.7984 0.189583 12.6758 0.30328 12.583C0.416977 12.4903 0.55425 12.431 0.699731 12.4118C0.734621 12.4095 0.769629 12.4095 0.804519 12.4118H3.50898L3.02665 11.8216C2.92441 11.6915 2.87788 11.5262 2.89723 11.3619C2.91658 11.1975 3.00024 11.0476 3.12989 10.9448L3.21003 10.8831C3.34032 10.7811 3.50575 10.7348 3.67009 10.7544C3.83443 10.7741 3.98429 10.858 4.08686 10.9879L5.20409 12.4056H7.93937H8.40167L11.0953 12.421V12.4133H18.3381Z" fill="#01AFA5"/>
    <path d="M19.3875 9.41428V9.51444C19.3878 9.6608 19.3368 9.80264 19.2433 9.91526C19.1498 10.0279 19.0198 10.1042 18.8759 10.1308C18.8384 10.1383 18.8002 10.1419 18.7619 10.1416V10.6039C18.8002 10.6036 18.8384 10.6072 18.8759 10.6147C19.0206 10.6397 19.1517 10.7155 19.2455 10.8285C19.3393 10.9415 19.3897 11.0843 19.3875 11.2311V11.3313C19.3878 11.4776 19.3368 11.6195 19.2433 11.7321C19.1498 11.8447 19.0198 11.921 18.8759 11.9477C18.8384 11.9552 18.8002 11.9588 18.7619 11.9585H8.02261H5.51232L4.53224 10.7149C4.3548 10.4892 4.09537 10.3428 3.81047 10.3076C3.52558 10.2724 3.23831 10.3512 3.01127 10.5269L2.93268 10.5901C2.73429 10.7468 2.5967 10.9678 2.54355 11.215C2.4904 11.4622 2.52501 11.7202 2.64143 11.9446H0.892386C0.856943 11.9446 0.8215 11.9446 0.787598 11.9446V1.28086C0.787598 1.19912 0.820069 1.12073 0.877868 1.06293C0.935666 1.00513 1.01406 0.972656 1.0958 0.972656H7.72212C7.80386 0.972656 7.88225 1.00513 7.94005 1.06293C7.99785 1.12073 8.03032 1.19912 8.03032 1.28086V6.74526H14.1943L15.3162 5.32908C15.3664 5.26395 15.4292 5.20954 15.5008 5.16906C15.5725 5.12858 15.6514 5.10284 15.7332 5.09336C15.8149 5.08388 15.8977 5.09085 15.9766 5.11387C16.0556 5.13689 16.1292 5.17548 16.193 5.22737L16.2716 5.28901C16.401 5.39127 16.4846 5.54056 16.5042 5.70427C16.5238 5.86798 16.4779 6.03281 16.3764 6.16276L15.891 6.74526H18.5954C18.6118 6.74373 18.6284 6.74373 18.6448 6.74526C18.7239 6.74832 18.802 6.76447 18.8759 6.79303C19.0261 6.85008 19.1554 6.95146 19.2466 7.08371C19.3379 7.21595 19.3867 7.37282 19.3867 7.53348C19.3867 7.69415 19.3379 7.85101 19.2466 7.98326C19.1554 8.1155 19.0261 8.21688 18.8759 8.27393C18.802 8.3025 18.7239 8.31864 18.6448 8.32171C18.6284 8.32324 18.6118 8.32324 18.5954 8.32171V8.78401H18.7619C18.8002 8.7837 18.8384 8.78732 18.8759 8.79479C19.0203 8.82156 19.1507 8.8983 19.2443 9.01156C19.3378 9.12482 19.3885 9.26739 19.3875 9.41428Z" fill="#E6EBEB"/>
</svg>