<svg width="20" height="24" viewBox="0 0 20 24" fill="none" xmlns="http://www.w3.org/2000/svg">
<path d="M7.93901 18.0767V22.7167C7.93901 22.7984 7.90654 22.8768 7.84874 22.9346C7.79094 22.9924 7.71255 23.0249 7.63081 23.0249H1.00449C0.92275 23.0249 0.844358 22.9924 0.786559 22.9346C0.72876 22.8768 0.696289 22.7984 0.696289 22.7167V18.0613L7.93901 18.0767Z" fill="#1B1626"/>
<path d="M18.3384 1.27988V6.28198H16.7651C16.8653 6.09024 16.9056 5.87279 16.8806 5.65787C16.8761 5.61799 16.8694 5.57838 16.8606 5.53922C16.8542 5.50677 16.8455 5.47484 16.8344 5.44367C16.8268 5.41794 16.8175 5.39272 16.8067 5.36817L16.7913 5.32964C16.7805 5.30498 16.7681 5.28033 16.7558 5.25721C16.7388 5.22568 16.7198 5.19531 16.6988 5.16629C16.6801 5.13871 16.6595 5.11245 16.6372 5.0877C16.6188 5.06507 16.5993 5.04346 16.5786 5.02298C16.5486 4.99275 16.5167 4.96444 16.4831 4.93822L16.4045 4.87658C16.293 4.78712 16.165 4.72068 16.0277 4.68113C15.8903 4.64158 15.7465 4.6297 15.6046 4.64619C15.4627 4.66268 15.3254 4.7072 15.2008 4.77717C15.0763 4.84715 14.9668 4.94118 14.8789 5.0538L13.8957 6.29431H11.0957V1.27988C11.0957 1.19814 11.1282 1.11975 11.186 1.06195C11.2438 1.00415 11.3222 0.97168 11.4039 0.97168H18.0302C18.112 0.97168 18.1904 1.00415 18.2482 1.06195C18.306 1.11975 18.3384 1.19814 18.3384 1.27988Z" fill="#6840DD"/>
<path d="M18.3381 12.4121V22.7199C18.3381 22.8016 18.3056 22.88 18.2478 22.9378C18.19 22.9956 18.1116 23.0281 18.0299 23.0281H11.4035C11.3218 23.0281 11.2434 22.9956 11.1856 22.9378C11.1278 22.88 11.0953 22.8016 11.0953 22.7199V17.6253H8.40938H7.94708L0.704354 17.6068H0.616517C0.564376 17.6072 0.512466 17.5999 0.462416 17.5853C0.377592 17.5648 0.298544 17.5253 0.231266 17.4697C0.21272 17.4556 0.19521 17.4401 0.178871 17.4235C0.120675 17.3641 0.074893 17.2937 0.0442007 17.2165C0.0135084 17.1392 -0.00147869 17.0566 0.000114979 16.9735V16.8733C4.4659e-05 16.7913 0.0163655 16.71 0.04812 16.6343C0.0798745 16.5586 0.126423 16.4901 0.185036 16.4326C0.200351 16.417 0.216837 16.4026 0.234348 16.3895C0.300247 16.3332 0.378332 16.2931 0.462416 16.2723C0.512497 16.2579 0.564386 16.2506 0.616517 16.2508V15.7885C0.564334 15.7878 0.512483 15.7801 0.462416 15.7653C0.377396 15.7438 0.29837 15.7032 0.231266 15.6467L0.186577 15.6112C0.12656 15.5528 0.0790737 15.4828 0.0470152 15.4055C0.0149568 15.3281 -0.00100122 15.245 0.000114979 15.1613V15.0611C0.000108604 14.9795 0.016304 14.8987 0.0477618 14.8234C0.0792196 14.7481 0.125314 14.6798 0.18337 14.6225C0.241427 14.5652 0.310291 14.5199 0.385968 14.4894C0.461645 14.4589 0.542629 14.4437 0.624222 14.4447H0.793732V13.9824C0.759387 13.9855 0.72483 13.9855 0.690485 13.9824C0.610362 13.9684 0.533228 13.9408 0.462416 13.9007C0.378951 13.863 0.302791 13.8108 0.23743 13.7466C0.134912 13.6416 0.0636397 13.5102 0.0315908 13.367C-0.000458056 13.2238 0.00798175 13.0745 0.0559654 12.9358C0.103949 12.7972 0.189583 12.6746 0.30328 12.5818C0.416977 12.489 0.55425 12.4298 0.699731 12.4106C0.734621 12.4082 0.769629 12.4082 0.804519 12.4106H3.50898L3.02665 11.8204C2.92441 11.6903 2.87788 11.525 2.89723 11.3606C2.91658 11.1963 3.00024 11.0463 3.12989 10.9435L3.21003 10.8819C3.34032 10.7798 3.50575 10.7336 3.67009 10.7532C3.83443 10.7728 3.98429 10.8568 4.08686 10.9867L5.20409 12.4044H7.93937H8.40167L11.0953 12.4198V12.4121H18.3381Z" fill="#6840DD"/>
<path d="M19.388 9.4133V9.51347C19.3883 9.65983 19.3373 9.80166 19.2438 9.91428C19.1503 10.0269 19.0203 10.1032 18.8764 10.1299C18.8389 10.1373 18.8006 10.141 18.7624 10.1407V10.603C18.8006 10.6027 18.8389 10.6063 18.8764 10.6137C19.0211 10.6387 19.1522 10.7145 19.246 10.8275C19.3398 10.9405 19.3901 11.0833 19.388 11.2301V11.3303C19.3883 11.4767 19.3373 11.6185 19.2438 11.7311C19.1503 11.8438 19.0203 11.92 18.8764 11.9467C18.8389 11.9542 18.8006 11.9578 18.7624 11.9575H8.0231H5.5128L4.53273 10.7139C4.35529 10.4883 4.09586 10.3419 3.81096 10.3067C3.52607 10.2714 3.2388 10.3502 3.01176 10.5259L2.93316 10.5891C2.73478 10.7458 2.59719 10.9668 2.54404 11.214C2.49089 11.4612 2.5255 11.7192 2.64191 11.9436H0.892874C0.857431 11.9436 0.821988 11.9436 0.788086 11.9436V1.27988C0.788086 1.19814 0.820557 1.11975 0.878356 1.06195C0.936155 1.00415 1.01455 0.97168 1.09629 0.97168H7.72261C7.80435 0.97168 7.88274 1.00415 7.94054 1.06195C7.99834 1.11975 8.03081 1.19814 8.03081 1.27988V6.74428H14.1948L15.3167 5.3281C15.3669 5.26297 15.4297 5.20857 15.5013 5.16808C15.5729 5.1276 15.6519 5.10186 15.7336 5.09238C15.8154 5.0829 15.8981 5.08988 15.9771 5.11289C16.0561 5.13591 16.1297 5.1745 16.1935 5.22639L16.2721 5.28803C16.4014 5.39029 16.4851 5.53958 16.5047 5.7033C16.5243 5.86701 16.4784 6.03184 16.3769 6.16178L15.8915 6.74428H18.5959C18.6123 6.74275 18.6288 6.74275 18.6452 6.74428C18.7244 6.74735 18.8025 6.76349 18.8764 6.79205C19.0266 6.84911 19.1559 6.95048 19.2471 7.08273C19.3383 7.21498 19.3872 7.37184 19.3872 7.53251C19.3872 7.69317 19.3383 7.85003 19.2471 7.98228C19.1559 8.11453 19.0266 8.21591 18.8764 8.27296C18.8025 8.30152 18.7244 8.31766 18.6452 8.32073C18.6288 8.32226 18.6123 8.32226 18.5959 8.32073V8.78303H18.7624C18.8006 8.78273 18.8389 8.78634 18.8764 8.79382C19.0208 8.82059 19.1512 8.89733 19.2448 9.01059C19.3383 9.12385 19.389 9.26641 19.388 9.4133Z" fill="#1B1626"/>
</svg>
