<svg width="81" height="18" viewBox="0 0 81 18" fill="none" xmlns="http://www.w3.org/2000/svg">
<path d="M7.31222 14.3736V8.81978H3.65008V14.3736H0.203125V0.349121H3.65008V5.74647H7.31222V0.349121H10.7553V14.3736H7.31222Z" fill="#E6E2F1"/>
<path d="M19.2068 14.3735V13.5069C18.5412 14.1348 17.6608 14.4847 16.7458 14.485C16.3079 14.5015 15.8711 14.4298 15.4615 14.2742C15.0518 14.1186 14.6776 13.8823 14.3611 13.5792C13.4553 12.6735 13.2988 11.668 13.2988 10.547V3.77637H16.5286V10.1186C16.5286 11.3393 17.3953 11.576 17.8276 11.576C18.2599 11.576 19.1285 11.3393 19.1285 10.1186V3.77637H22.3583V14.3735H19.2068Z" fill="#E6E2F1"/>
<path d="M28.62 17.9182C26.965 17.9182 25.7228 17.6228 24.641 16.5488L26.6501 14.5397C27.1411 15.0327 27.7319 15.2107 28.4616 15.2107C29.8212 15.2107 30.1753 14.2835 30.1753 13.5948V12.826C29.5884 13.4129 28.8743 13.7142 27.8903 13.7142C27.4342 13.7306 26.9794 13.6553 26.553 13.4927C26.1266 13.33 25.7371 13.0834 25.4078 12.7673C24.4434 11.8029 24.4297 10.6154 24.4297 8.69047C24.4297 6.7655 24.4493 5.57804 25.4078 4.6136C25.7411 4.29755 26.134 4.05104 26.5636 3.88848C26.9932 3.72591 27.4509 3.65054 27.9099 3.66677C28.3516 3.64483 28.7927 3.72118 29.2014 3.89033C29.61 4.05947 29.9761 4.31719 30.2731 4.6449V3.77632H33.4031V13.6046C33.4051 16.1067 31.5153 17.9182 28.62 17.9182ZM28.9154 6.57183C27.7319 6.57183 27.6536 7.59496 27.6536 8.67874C27.6536 9.76251 27.7319 10.7856 28.9154 10.7856C30.099 10.7856 30.1753 9.76251 30.1753 8.67874C30.1753 7.59496 30.097 6.57379 28.9154 6.57379V6.57183Z" fill="#E6E2F1"/>
<path d="M39.4293 14.4911C37.833 14.4911 36.2777 14.4128 34.8203 12.9554L36.9077 10.868C37.7938 11.7542 38.9363 11.7542 39.488 11.7542C39.9614 11.7542 40.8671 11.6153 40.8671 11.0637C40.8671 10.7683 40.7283 10.4533 40.0983 10.3946L38.4629 10.2362C36.6318 10.0601 35.3915 9.2326 35.3915 7.16482C35.3915 4.8173 37.4985 3.65723 39.6054 3.65723C41.3386 3.65723 42.7354 3.9135 43.782 4.95815L41.7925 6.94768C41.2604 6.41557 40.3742 6.31776 39.5467 6.31776C38.7642 6.31776 38.504 6.69141 38.504 6.92811C38.504 7.04549 38.4629 7.44066 39.1926 7.515L40.828 7.67345C43.0523 7.89256 44.0109 9.21304 44.0109 10.9072C44.0109 13.4073 41.8903 14.4911 39.4293 14.4911Z" fill="#E6E2F1"/>
<path d="M56.7266 14.3735H54.1404L52.2272 8.56337L50.3179 14.3735H47.7395L44.5469 3.77637H47.9547L49.2752 9.27154L51.1063 3.77637H53.3521L55.1831 9.27154L56.5036 3.77637H59.9114L56.7266 14.3735Z" fill="#E6E2F1"/>
<path d="M66.2711 14.3737V13.507C65.6216 14.1565 65.0308 14.4715 63.9079 14.4715C62.8437 14.4715 61.9516 14.1174 61.3648 13.5266C60.7779 12.9358 60.4453 12.0301 60.4453 11.0441C60.4453 9.44973 61.5291 7.97079 64.0507 7.97079H66.2026V7.69691C66.2026 6.73051 65.7292 6.37643 64.6063 6.37643C63.7808 6.37643 63.4325 6.57206 62.9141 7.0846L60.8953 5.08529C61.9771 4.00347 62.963 3.66699 64.755 3.66699C67.7892 3.66699 69.4226 4.92879 69.4226 7.50911V14.3835L66.2711 14.3737ZM66.1928 10.1188H64.5535C63.9236 10.1188 63.5304 10.4729 63.5304 10.9658C63.5304 11.4588 63.8844 11.852 64.5926 11.852C65.2245 11.852 65.5199 11.7933 65.874 11.4608C66.1107 11.2436 66.1889 10.9091 66.1889 10.3966L66.1928 10.1188Z" fill="#E6E2F1"/>
<path d="M79.8393 13.5266C79.1455 14.1719 78.2256 14.5184 77.2785 14.4911C76.2358 14.4911 75.5061 14.1957 74.9153 13.6049V17.8011H71.6855V3.77655H74.8156V4.64318C75.4651 3.99369 76.1556 3.66504 77.257 3.66504C78.2821 3.66504 79.227 4.02108 79.8373 4.63144C80.882 5.67609 80.8155 7.52672 80.8155 9.08196C80.8155 10.6372 80.8839 12.482 79.8393 13.5266ZM76.2554 6.57402C75.0542 6.57402 74.9153 7.53846 74.9153 9.07413C74.9153 10.6098 75.0542 11.5762 76.2554 11.5762C77.4565 11.5762 77.5954 10.6118 77.5954 9.07413C77.5954 7.5365 77.4644 6.57402 76.2554 6.57402Z" fill="#E6E2F1"/>
</svg>