<svg width="81" height="18" viewBox="0 0 81 18" fill="none" xmlns="http://www.w3.org/2000/svg">
<path d="M7.31222 14.3736V8.81978H3.65008V14.3736H0.203125V0.349121H3.65008V5.74647H7.31222V0.349121H10.7553V14.3736H7.31222Z" fill="#1B1626"/>
<path d="M19.2058 14.3737V13.5071C18.5402 14.1351 17.6599 14.485 16.7448 14.4852C16.3069 14.5017 15.8702 14.43 15.4605 14.2744C15.0509 14.1188 14.6767 13.8825 14.3601 13.5795C13.4544 12.6737 13.2979 11.6682 13.2979 10.5473V3.77661H16.5277V10.1188C16.5277 11.3396 17.3943 11.5763 17.8266 11.5763C18.259 11.5763 19.1275 11.3396 19.1275 10.1188V3.77661H22.3573V14.3737H19.2058Z" fill="#1B1626"/>
<path d="M28.62 17.9182C26.965 17.9182 25.7228 17.6228 24.641 16.5488L26.6501 14.5397C27.1411 15.0327 27.7319 15.2107 28.4616 15.2107C29.8212 15.2107 30.1753 14.2835 30.1753 13.5948V12.826C29.5884 13.4129 28.8743 13.7142 27.8903 13.7142C27.4342 13.7306 26.9794 13.6553 26.553 13.4927C26.1266 13.33 25.7371 13.0834 25.4078 12.7673C24.4434 11.8029 24.4297 10.6154 24.4297 8.69047C24.4297 6.7655 24.4493 5.57804 25.4078 4.6136C25.7411 4.29755 26.134 4.05104 26.5636 3.88848C26.9932 3.72591 27.4509 3.65054 27.9099 3.66677C28.3516 3.64483 28.7927 3.72118 29.2014 3.89033C29.61 4.05947 29.9761 4.31719 30.2731 4.6449V3.77632H33.4031V13.6046C33.4051 16.1067 31.5153 17.9182 28.62 17.9182ZM28.9154 6.57183C27.7319 6.57183 27.6536 7.59496 27.6536 8.67874C27.6536 9.76251 27.7319 10.7856 28.9154 10.7856C30.099 10.7856 30.1753 9.76251 30.1753 8.67874C30.1753 7.59496 30.097 6.57379 28.9154 6.57379V6.57183Z" fill="#1B1626"/>
<path d="M39.4303 14.4908C37.8339 14.4908 36.2787 14.4126 34.8213 12.9551L36.9086 10.8678C37.7948 11.754 38.9373 11.754 39.489 11.754C39.9624 11.754 40.8681 11.6151 40.8681 11.0634C40.8681 10.768 40.7292 10.4531 40.0993 10.3944L38.4639 10.2359C36.6328 10.0599 35.3925 9.23236 35.3925 7.16458C35.3925 4.81705 37.4994 3.65698 39.6063 3.65698C41.3396 3.65698 42.7364 3.91325 43.783 4.9579L41.7934 6.94743C41.2613 6.41533 40.3751 6.31751 39.5476 6.31751C38.7651 6.31751 38.505 6.69116 38.505 6.92787C38.505 7.04525 38.4639 7.44041 39.1936 7.51475L40.829 7.67321C43.0533 7.89231 44.0119 9.2128 44.0119 10.9069C44.0119 13.407 41.8913 14.4908 39.4303 14.4908Z" fill="#1B1626"/>
<path d="M56.7276 14.3737H54.1414L52.2282 8.56361L50.3189 14.3737H47.7405L44.5479 3.77661H47.9557L49.2762 9.27178L51.1072 3.77661H53.353L55.1841 9.27178L56.5046 3.77661H59.9124L56.7276 14.3737Z" fill="#1B1626"/>
<path d="M66.2701 14.3737V13.507C65.6206 14.1565 65.0298 14.4715 63.9069 14.4715C62.8427 14.4715 61.9507 14.1174 61.3638 13.5266C60.7769 12.9358 60.4443 12.0301 60.4443 11.0441C60.4443 9.44973 61.5281 7.97079 64.0497 7.97079H66.2016V7.69691C66.2016 6.73051 65.7282 6.37643 64.6053 6.37643C63.7798 6.37643 63.4316 6.57206 62.9132 7.0846L60.8943 5.08529C61.9761 4.00347 62.9621 3.66699 64.754 3.66699C67.7882 3.66699 69.4217 4.92879 69.4217 7.50911V14.3835L66.2701 14.3737ZM66.1919 10.1188H64.5525C63.9226 10.1188 63.5294 10.4729 63.5294 10.9658C63.5294 11.4588 63.8835 11.852 64.5916 11.852C65.2235 11.852 65.5189 11.7933 65.873 11.4608C66.1097 11.2436 66.1879 10.9091 66.1879 10.3966L66.1919 10.1188Z" fill="#1B1626"/>
<path d="M79.8393 13.5266C79.1455 14.1719 78.2256 14.5184 77.2785 14.4911C76.2358 14.4911 75.5061 14.1957 74.9153 13.6049V17.8011H71.6855V3.77655H74.8156V4.64318C75.4651 3.99369 76.1556 3.66504 77.257 3.66504C78.2821 3.66504 79.227 4.02108 79.8373 4.63144C80.882 5.67609 80.8155 7.52672 80.8155 9.08196C80.8155 10.6372 80.8839 12.482 79.8393 13.5266ZM76.2554 6.57402C75.0542 6.57402 74.9153 7.53846 74.9153 9.07413C74.9153 10.6098 75.0542 11.5762 76.2554 11.5762C77.4565 11.5762 77.5954 10.6118 77.5954 9.07413C77.5954 7.5365 77.4644 6.57402 76.2554 6.57402Z" fill="#1B1626"/>
</svg>
